<svg width="64" height="64" viewBox="0 0 64 64" fill="none" xmlns="http://www.w3.org/2000/svg">
<g filter="url(#filter0_d_2118_21157)">
<rect x="12" y="8" width="40" height="40" rx="20" fill="#62215B"/>
<path d="M30.9118 35.5916C33.3952 36.7338 35.6298 36.728 37.9391 35.5743C38.3103 35.3888 38.7331 35.1018 39.1081 34.8492L39.3377 34.6943L39.3683 34.7153C39.4697 34.7842 39.5463 34.855 39.6305 34.9583L39.684 35.0252C39.7433 35.0979 39.7433 35.0979 39.8122 35.1534L39.8849 35.2127C40.0035 35.3103 40.1107 35.4251 40.2159 35.5361C40.281 35.605 40.3479 35.6738 40.4149 35.7408C40.6254 35.9436 40.8741 36.1235 41.1151 36.2976C41.1764 36.3416 41.2376 36.3856 41.2969 36.4296C41.3313 36.4564 41.3581 36.4774 41.3773 36.4927C41.3945 36.5061 41.4117 36.5214 41.4174 36.5233C41.427 36.5233 41.4576 36.508 41.494 36.4889C41.1591 35.8613 40.8473 35.3773 40.3613 34.7287L39.9232 34.1011L39.9442 34.0686C40.1241 33.8008 40.2982 33.5807 40.4646 33.3665C40.7555 32.9972 41.031 32.6471 41.2988 32.1018C42.6362 29.385 42.0928 24.8199 39.3875 23.0062L39.3396 22.9756L40.2752 21.6172L40.3173 21.6382C40.612 21.7798 41.075 21.533 41.228 21.4258C41.5973 21.1656 41.7542 20.6318 41.603 20.1574C41.4442 19.6599 40.9984 19.3748 40.3805 19.3748C40.0743 19.3748 39.7376 19.5776 39.5424 19.8818C39.3224 20.2224 39.3014 20.6338 39.4851 21.0374C39.5711 21.2269 39.4812 21.3455 39.3836 21.4718C39.3664 21.4947 39.3473 21.5196 39.3282 21.5445C39.309 21.5712 39.2842 21.6057 39.2555 21.6459C39.1101 21.8468 38.8039 22.2619 38.7676 22.4054L38.7542 22.4571L38.7025 22.4456C38.6891 22.4418 38.6796 22.4379 38.5552 22.3652C38.2395 22.1797 37.4015 21.686 36.7529 21.4756C34.6675 20.7983 32.1286 21.158 30.2823 22.3959L30.2364 22.4265L30.2058 22.3806C30.0106 22.0878 29.5687 21.5789 29.142 21.0853C28.6943 20.5668 28.2294 20.0311 28.0113 19.7058L27.9979 19.6867L28.0036 19.6637C28.0342 19.5317 28.0591 19.4514 28.0782 19.3882C28.1165 19.2619 28.1337 19.2103 28.1337 18.931C28.1337 18.5368 27.8639 18.1695 27.4449 17.9973C27.0929 17.8519 26.5763 17.8366 26.1784 18.2345C26.0196 18.3933 25.834 18.7167 25.834 19.107C25.834 19.6656 26.3391 20.1937 26.8748 20.1937L27.3895 20.1478L27.4067 20.1803C27.4679 20.297 27.4966 20.3276 27.5425 20.3774C27.5693 20.4061 27.5999 20.4405 27.6439 20.496C27.7453 20.6242 27.95 20.8672 28.1892 21.1465C28.7364 21.7913 29.4156 22.5929 29.5534 22.8531L29.5667 22.8799L29.5514 22.9067C29.5457 22.9143 29.5457 22.9143 29.4328 23.0272C29.2032 23.253 28.6637 23.7791 28.5565 23.9169C26.6624 26.3544 26.473 29.5151 28.0821 31.964C28.8914 33.1962 30.1484 34.0839 31.6235 34.4647L31.6465 34.4704C32.4902 34.6866 33.8237 34.8129 34.8033 34.4513C34.9085 34.413 34.9889 34.3728 35.075 34.3307C35.1477 34.2944 35.2223 34.258 35.3161 34.2198C38.0329 33.1292 38.7504 30.5674 38.7504 29.3658C38.7504 28.591 38.6145 27.9864 38.3218 27.4602C38.1228 27.1025 37.8856 26.6988 37.5967 26.4099C37.5909 26.4041 37.0361 25.8588 36.5386 25.6159L36.4468 25.5699C35.4596 25.0725 33.5253 24.7779 32.274 26.7179C31.9392 27.2383 31.8282 28.0246 31.9851 28.7727C32.0578 29.119 32.3237 29.5074 32.5552 29.7389C33.0316 30.2153 33.7568 30.4507 34.4015 30.3416C34.9239 30.2536 35.3352 29.9456 35.561 29.4787C35.9207 28.7306 35.67 28.1261 35.3142 27.8065C34.9296 27.4622 34.4015 27.3971 33.9998 27.6458C33.7855 27.7778 33.6401 27.994 33.6018 28.2389C33.5674 28.4609 33.6248 28.6732 33.7663 28.8416C33.8716 28.966 33.9098 28.9851 34.149 29.0253C34.3958 29.0674 34.5948 28.9813 34.6828 28.7919C34.7631 28.6216 34.7191 28.4226 34.5718 28.2982C34.5278 28.26 34.4953 28.2428 34.4666 28.2275C34.3977 28.1892 34.3594 28.1624 34.3212 28.0189L34.3097 27.9768L34.348 27.9558C34.5603 27.8372 34.8167 27.906 34.9985 28.1337C35.2128 28.4035 35.2912 28.8627 34.9545 29.2377C34.7746 29.4385 34.5259 29.5476 34.237 29.5553C33.8601 29.5648 33.5234 29.4041 33.3588 29.2396C32.9513 28.832 32.8882 28.1203 33.2096 27.5425C33.5521 26.9245 34.2121 26.6605 34.9755 26.8365C35.5571 26.9704 36.0182 27.3301 36.2746 27.8486C36.5635 28.4322 36.5712 29.1477 36.2918 29.7638C36.0565 30.2861 35.3582 30.9921 34.8148 31.1184C33.2287 31.4857 31.7861 30.8257 31.1375 29.4405C30.5253 28.128 30.7338 26.1784 32.582 24.7817C33.1924 24.3206 34.0878 24.0566 35.0406 24.0566C37.721 24.0566 40.0743 26.3659 40.0743 28.9966C40.0743 30.3933 39.6706 31.7498 38.9359 32.8135L38.869 32.8996C38.7389 33.0642 38.6757 33.1464 38.2969 33.5214C37.5814 34.3824 36.2306 35.0922 34.7746 35.3677C33.5176 35.6069 31.6197 35.6356 29.7217 34.4245C29.6088 34.3575 29.5285 34.2963 29.45 34.2351C29.3926 34.1911 29.3333 34.1451 29.2587 34.0973C29.2262 34.0763 29.1937 34.0533 29.1611 34.0304C29.0463 33.9462 28.9354 33.8677 28.7766 33.8486C28.8703 34.3288 30.4889 35.3868 30.9118 35.5916Z" fill="#C19F86"/>
<path d="M25.1165 35.6528C26.4672 36.3071 28.39 36.399 29.936 36.4717C30.0756 36.4774 30.2115 36.4851 30.3435 36.4908C30.4965 36.487 30.6171 36.4181 30.6324 36.3569C30.6458 36.3033 30.5654 36.2536 30.5272 36.2344C30.1636 36.1024 27.1177 34.8856 26.5935 30.6898C26.5725 30.5272 26.5571 30.355 26.5399 30.179C26.4404 29.1516 26.3295 27.9883 25.3882 27.4928L25.3575 27.4775V27.443C25.3652 27.0699 25.5336 27.0432 25.7651 27.0049C25.9105 26.9819 26.0922 26.9513 26.3161 26.8327C26.737 26.6089 26.9417 26.0904 26.8116 25.568C26.7064 25.1452 26.341 24.6918 25.6311 24.6918C25.1146 24.6918 24.5463 25.26 24.5463 25.7766C24.5463 26.121 24.5903 26.3773 24.8046 26.605C24.8352 26.6356 24.8601 26.6605 24.8831 26.6816C25.0285 26.8155 25.0246 26.8691 24.8467 27.2058L24.8276 27.2402L24.7893 27.2345C24.267 27.1637 23.7791 27.2364 23.3333 27.4526L23.2797 27.4775L23.251 27.4488C23.1037 27.3014 22.9947 27.1637 22.943 26.9743L22.9411 26.9513L22.9545 26.9303C23.0062 26.8537 23.0559 26.7944 23.1056 26.7351C23.2606 26.5534 23.3831 26.408 23.3831 25.9086C23.3831 25.6407 23.2109 25.2543 22.8818 25.0304C22.7459 24.9386 22.5508 24.8525 22.2944 24.8525C22.1394 24.8525 21.9615 24.8831 21.7625 24.9635C21.4296 25.0955 21.1962 25.3786 21.1216 25.7383C21.0412 26.1344 21.1656 26.5457 21.4583 26.8365C21.663 27.0374 21.9271 27.1235 22.3442 27.1235H22.3595L22.3729 27.1312C22.5565 27.2402 22.6599 27.5808 22.7058 27.774L22.7153 27.8123L22.6828 27.8333C21.3225 28.746 21.621 30.7051 21.7453 31.2848C22.1414 33.1388 23.4653 34.8511 25.1165 35.6528Z" fill="#C19F86"/>
</g>
<defs>
<filter id="filter0_d_2118_21157" x="0" y="0" width="64" height="64" filterUnits="userSpaceOnUse" color-interpolation-filters="sRGB">
<feFlood flood-opacity="0" result="BackgroundImageFix"/>
<feColorMatrix in="SourceAlpha" type="matrix" values="0 0 0 0 0 0 0 0 0 0 0 0 0 0 0 0 0 0 127 0" result="hardAlpha"/>
<feOffset dy="4"/>
<feGaussianBlur stdDeviation="6"/>
<feComposite in2="hardAlpha" operator="out"/>
<feColorMatrix type="matrix" values="0 0 0 0 0 0 0 0 0 0 0 0 0 0 0 0 0 0 0.4 0"/>
<feBlend mode="normal" in2="BackgroundImageFix" result="effect1_dropShadow_2118_21157"/>
<feBlend mode="normal" in="SourceGraphic" in2="effect1_dropShadow_2118_21157" result="shape"/>
</filter>
</defs>
</svg>
