<svg width="180" height="180" viewBox="0 0 180 180" fill="none" xmlns="http://www.w3.org/2000/svg">
<rect width="180" height="180" fill="#62215B"/>
<path d="M86.5675 132.098C98.9827 137.809 110.154 137.78 121.699 132.012C123.555 131.085 125.669 129.65 127.543 128.387L128.691 127.612L128.844 127.718C129.351 128.062 129.734 128.416 130.155 128.932L130.422 129.267C130.719 129.631 130.719 129.631 131.063 129.908L131.427 130.205C132.02 130.692 132.555 131.266 133.081 131.821C133.407 132.165 133.741 132.51 134.076 132.844C135.128 133.858 136.372 134.757 137.577 135.628C137.883 135.848 138.189 136.068 138.486 136.288C138.658 136.422 138.792 136.527 138.887 136.603C138.973 136.67 139.059 136.747 139.088 136.756C139.136 136.756 139.289 136.68 139.471 136.584C137.797 133.447 136.238 131.027 133.808 127.785L131.618 124.647L131.723 124.485C132.622 123.146 133.493 122.046 134.325 120.974C135.779 119.128 137.156 117.378 138.495 114.652C145.181 101.07 142.465 78.2482 128.94 69.1807L128.701 69.0277L133.378 62.2366L133.588 62.3418C135.061 63.0496 137.376 61.8158 138.141 61.2801C139.987 59.9793 140.772 57.3107 140.016 54.9386C139.222 52.4518 136.993 51.0266 133.904 51.0266C132.374 51.0266 130.69 52.0405 129.715 53.5613C128.615 55.2638 128.509 57.3203 129.428 59.3385C129.858 60.2854 129.409 60.8784 128.921 61.5097C128.835 61.6245 128.739 61.7488 128.643 61.8732C128.548 62.0071 128.423 62.1792 128.28 62.3801C127.553 63.3844 126.023 65.46 125.841 66.1773L125.774 66.4356L125.516 66.3782C125.449 66.3591 125.401 66.34 124.779 65.9765C123.201 65.0487 119.012 62.581 115.769 61.5288C105.343 58.1429 92.6508 59.9411 83.4207 66.1295L83.1911 66.2826L83.0381 66.053C82.0624 64.5896 79.853 62.0453 77.72 59.5776C75.4818 56.9855 73.1576 54.3074 72.0672 52.6813L72.0002 52.5857L72.0289 52.4709C72.1819 51.8109 72.3063 51.4092 72.4019 51.0936C72.5932 50.4623 72.6793 50.204 72.6793 48.8076C72.6793 46.8372 71.3307 45.0007 69.236 44.1399C67.476 43.413 64.8935 43.3365 62.904 45.3259C62.1101 46.1198 61.1823 47.7363 61.1823 49.6875C61.1823 52.4805 63.7075 55.1204 66.3856 55.1204L68.9586 54.8908L69.0447 55.0534C69.3507 55.6369 69.4942 55.7899 69.7238 56.0386C69.8577 56.1821 70.0107 56.3542 70.2307 56.6316C70.7376 57.2725 71.7611 58.4872 72.9567 59.8837C75.6922 63.107 79.0878 67.1147 79.7764 68.4155L79.8434 68.5494L79.7669 68.6833C79.7382 68.7216 79.7382 68.7216 79.1739 69.2859C78.0261 70.4146 75.3288 73.0449 74.7931 73.7336C65.3239 85.9192 64.377 101.72 72.4211 113.963C76.467 120.123 82.7511 124.561 90.1256 126.465L90.2404 126.493C94.4585 127.574 101.125 128.205 106.022 126.398C106.549 126.206 106.95 126.006 107.381 125.795C107.744 125.613 108.117 125.432 108.586 125.24C122.168 119.788 125.755 106.981 125.755 100.974C125.755 97.1005 125.076 94.0781 123.612 91.4477C122.617 89.6591 121.431 87.6409 119.987 86.1966C119.958 86.1679 117.185 83.4419 114.698 82.2272L114.239 81.9976C109.303 79.5108 99.6331 78.0378 93.3777 87.7365C91.7038 90.3382 91.1491 94.2694 91.9334 98.0092C92.2969 99.7405 93.6264 101.682 94.7837 102.839C97.1654 105.221 100.79 106.398 104.014 105.852C106.625 105.412 108.681 103.872 109.81 101.539C111.608 97.7988 110.355 94.7763 108.576 93.179C106.654 91.4573 104.014 91.1321 102.005 92.3755C100.934 93.0355 100.207 94.1163 100.016 95.3406C99.8435 96.4501 100.13 97.5118 100.838 98.3535C101.364 98.9753 101.556 99.0709 102.751 99.2718C103.985 99.4822 104.98 99.0518 105.42 98.1049C105.822 97.2536 105.602 96.2588 104.865 95.6371C104.645 95.4458 104.482 95.3597 104.339 95.2832C103.995 95.0919 103.803 94.958 103.612 94.2407L103.555 94.0302L103.746 93.925C104.808 93.332 106.089 93.6763 106.998 94.8145C108.069 96.1632 108.461 98.4588 106.778 100.333C105.879 101.338 104.636 101.883 103.191 101.921C101.307 101.969 99.6235 101.166 98.801 100.343C96.7636 98.3057 96.448 94.7476 98.0549 91.859C99.767 88.7696 103.067 87.4496 106.883 88.3296C109.791 88.9991 112.096 90.7973 113.378 93.3894C114.822 96.3067 114.86 99.8839 113.464 102.964C112.287 105.575 108.796 109.104 106.08 109.736C98.1505 111.572 90.9386 108.272 87.6962 101.347C84.6354 94.7859 85.678 85.0393 94.9176 78.0569C97.9688 75.7518 102.445 74.4318 107.208 74.4318C120.609 74.4318 132.374 85.9766 132.374 99.1283C132.374 106.111 130.355 112.892 126.683 118.21L126.348 118.641C125.697 119.463 125.382 119.874 123.488 121.749C119.911 126.053 113.158 129.602 105.879 130.979C99.5948 132.175 90.1065 132.318 80.6182 126.264C80.0538 125.929 79.6521 125.623 79.2599 125.317C78.973 125.097 78.6765 124.867 78.3035 124.628C78.1409 124.523 77.9783 124.408 77.8156 124.293C77.2418 123.873 76.687 123.48 75.8931 123.385C76.3618 125.786 84.4537 131.075 86.5675 132.098Z" fill="#C19F86"/>
<path d="M57.5957 132.404C64.3485 135.676 73.9612 136.135 81.6896 136.498C82.3879 136.527 83.067 136.565 83.7269 136.594C84.4921 136.575 85.0947 136.23 85.1712 135.924C85.2382 135.656 84.8365 135.408 84.6452 135.312C82.8278 134.652 67.6006 128.569 64.9798 107.593C64.8746 106.78 64.7981 105.919 64.712 105.039C64.2146 99.903 63.6598 94.0876 58.9539 91.6103L58.8009 91.5338V91.3616C58.8392 89.4965 59.6809 89.3626 60.8382 89.1713C61.5651 89.0565 62.4738 88.9034 63.5929 88.3104C65.6972 87.1913 66.7206 84.5993 66.0702 81.9881C65.5441 79.8742 63.7172 77.6073 60.1687 77.6073C57.5862 77.6073 54.7454 80.4481 54.7454 83.0306C54.7454 84.7523 54.9654 86.034 56.0366 87.1722C56.1897 87.3252 56.314 87.4496 56.4288 87.5548C57.1557 88.2243 57.1366 88.4922 56.2471 90.1756L56.1514 90.3477L55.9601 90.319C53.3489 89.9651 50.9099 90.3286 48.6813 91.4094L48.4135 91.5338L48.27 91.3903C47.5335 90.6538 46.9883 89.9651 46.73 89.0182L46.7205 88.9034L46.7874 88.7982C47.0457 88.4156 47.2944 88.1191 47.543 87.8226C48.3178 86.914 48.93 86.187 48.93 83.6906C48.93 82.3515 48.0691 80.4194 46.424 79.3003C45.7449 78.8412 44.7692 78.4108 43.4875 78.4108C42.7128 78.4108 41.8233 78.5638 40.8285 78.9656C39.1642 79.6255 37.9973 81.0411 37.6243 82.8393C37.2226 84.8192 37.8443 86.8757 39.3077 88.3296C40.3311 89.3339 41.6511 89.7643 43.7362 89.7643H43.8128L43.8797 89.8025C44.7979 90.3477 45.3144 92.0503 45.544 93.0163L45.5918 93.2076L45.4292 93.3128C38.6286 97.8753 40.1207 107.67 40.7424 110.568C42.7224 119.836 49.3412 128.397 57.5957 132.404Z" fill="#C19F86"/>
</svg>
