<svg width="451" height="401" fill="none" xmlns="http://www.w3.org/2000/svg"><path d="M211.847 380.389C265.253 404.952 313.311 404.829 362.972 380.018C370.955 376.027 380.048 369.856 388.112 364.425L393.049 361.092L393.708 361.544C395.888 363.026 397.534 364.548 399.345 366.77L400.497 368.21C401.772 369.773 401.772 369.773 403.253 370.967L404.817 372.242C407.368 374.34 409.672 376.809 411.935 379.196C413.334 380.677 414.774 382.158 416.214 383.598C420.74 387.959 426.089 391.827 431.273 395.571C432.59 396.518 433.906 397.464 435.182 398.41C435.922 398.986 436.498 399.439 436.91 399.768C437.28 400.056 437.65 400.385 437.774 400.426C437.98 400.426 438.638 400.097 439.42 399.686C432.219 386.19 425.513 375.781 415.062 361.832L405.64 348.337L406.092 347.637C409.96 341.877 413.704 337.146 417.284 332.537C423.538 324.596 429.463 317.067 435.223 305.341C463.983 246.915 452.298 148.743 394.119 109.738L393.09 109.079L413.21 79.8666L414.116 80.3192C420.452 83.3639 430.409 78.0562 433.701 75.7521C441.641 70.1564 445.015 58.677 441.765 48.4731C438.35 37.7754 428.763 31.6448 415.473 31.6448C408.89 31.6448 401.649 36.0062 397.452 42.5482C392.72 49.872 392.268 58.7181 396.217 67.3997C398.069 71.4731 396.135 74.024 394.037 76.7396C393.667 77.2333 393.255 77.7682 392.844 78.3031C392.432 78.8791 391.897 79.6197 391.28 80.4838C388.153 84.804 381.57 93.7324 380.788 96.8183L380.5 97.9292L379.389 97.6823C379.101 97.6001 378.896 97.5178 376.221 95.9543C369.432 91.9632 351.411 81.3478 337.463 76.8219C292.615 62.2566 238.015 69.9918 198.311 96.6126L197.323 97.2709L196.665 96.2834C192.468 89.9882 182.964 79.0437 173.788 68.4283C164.16 57.2781 154.162 45.7575 149.472 38.7629L149.184 38.3514L149.307 37.8577C149.965 35.0187 150.5 33.2906 150.912 31.9328C151.735 29.2173 152.105 28.1064 152.105 22.0992C152.105 13.6234 146.303 5.72354 137.293 2.0205C129.722 -1.10651 118.613 -1.43567 110.055 7.12246C106.64 10.5375 102.649 17.491 102.649 25.8845C102.649 37.8988 113.511 49.2548 125.032 49.2548L136.1 48.2673L136.47 48.9668C137.786 51.4766 138.404 52.135 139.391 53.2047C139.967 53.8219 140.625 54.5625 141.572 55.7557C143.752 58.5124 148.155 63.7378 153.298 69.745C165.066 83.6108 179.672 100.85 182.634 106.446L182.922 107.022L182.593 107.598C182.47 107.763 182.47 107.763 180.042 110.19C175.105 115.045 163.502 126.36 161.198 129.323C120.464 181.741 116.391 249.713 150.994 302.378C168.398 328.875 195.43 347.967 227.153 356.154L227.647 356.278C245.792 360.927 274.47 363.643 295.536 355.866C297.799 355.044 299.527 354.18 301.379 353.274C302.942 352.493 304.547 351.711 306.563 350.888C364.989 327.435 380.418 272.342 380.418 246.503C380.418 229.84 377.497 216.838 371.201 205.523C366.922 197.829 361.82 189.147 355.607 182.935C355.484 182.811 343.552 171.085 332.854 165.859L330.879 164.872C309.649 154.174 268.051 147.838 241.142 189.559C233.942 200.75 231.556 217.661 234.93 233.748C236.493 241.196 242.212 249.548 247.191 254.527C257.436 264.772 273.03 269.832 286.896 267.487C298.128 265.595 306.974 258.97 311.829 248.931C319.565 232.843 314.175 219.841 306.522 212.97C298.252 205.564 286.896 204.165 278.255 209.514C273.647 212.353 270.52 217.002 269.697 222.269C268.956 227.042 270.191 231.609 273.235 235.23C275.498 237.904 276.321 238.316 281.464 239.18C286.772 240.085 291.051 238.233 292.944 234.16C294.672 230.498 293.726 226.219 290.557 223.545C289.611 222.722 288.912 222.351 288.294 222.022C286.813 221.199 285.99 220.623 285.167 217.537L284.921 216.632L285.743 216.18C290.311 213.629 295.824 215.11 299.733 220.006C304.341 225.807 306.028 235.682 298.786 243.747C294.919 248.067 289.57 250.412 283.357 250.577C275.252 250.782 268.01 247.326 264.472 243.788C255.708 235.024 254.35 219.718 261.262 207.292C268.627 194.002 282.822 188.324 299.239 192.11C311.747 194.99 321.663 202.725 327.176 213.875C333.389 226.425 333.554 241.813 327.547 255.061C322.486 266.294 307.468 281.477 295.783 284.192C261.674 292.092 230.65 277.897 216.702 248.108C203.536 219.883 208.021 177.956 247.767 147.92C260.892 138.004 280.148 132.326 300.638 132.326C358.282 132.326 408.89 181.988 408.89 238.562C408.89 268.598 400.209 297.77 384.409 320.646L382.969 322.498C380.171 326.036 378.813 327.806 370.667 335.87C355.278 354.385 326.23 369.65 294.919 375.575C267.887 380.718 227.071 381.335 186.255 355.29C183.828 353.85 182.1 352.534 180.413 351.217C179.178 350.271 177.903 349.283 176.298 348.255C175.599 347.802 174.899 347.308 174.2 346.815C171.731 345.004 169.345 343.317 165.93 342.906C167.946 353.233 202.754 375.986 211.847 380.389Z" fill="#C19F86"/><path d="M87.2204 381.705C116.269 395.777 157.619 397.752 190.864 399.315C193.868 399.439 196.789 399.603 199.628 399.727C202.92 399.644 205.512 398.163 205.841 396.847C206.129 395.695 204.401 394.625 203.578 394.213C195.761 391.374 130.258 365.206 118.984 274.975C118.532 271.478 118.202 267.775 117.832 263.99C115.693 241.895 113.306 216.879 93.063 206.222L92.4046 205.893V205.153C92.5692 197.129 96.19 196.553 101.168 195.731C104.296 195.237 108.204 194.578 113.018 192.027C122.07 187.214 126.473 176.063 123.675 164.831C121.412 155.738 113.553 145.986 98.2884 145.986C87.1792 145.986 74.9592 158.206 74.9592 169.316C74.9592 176.722 75.9055 182.235 80.5138 187.131C81.1721 187.79 81.707 188.324 82.2007 188.777C85.3277 191.657 85.2454 192.809 81.4189 200.051L81.0075 200.791L80.1846 200.668C68.952 199.146 58.4601 200.709 48.8733 205.358L47.7213 205.893L47.1041 205.276C43.936 202.108 41.5907 199.146 40.4798 195.072L40.4386 194.578L40.7267 194.126C41.8376 192.48 42.9073 191.205 43.9771 189.929C47.3098 186.02 49.9431 182.893 49.9431 172.154C49.9431 166.394 46.2401 158.083 39.1631 153.269C36.2419 151.294 32.0451 149.443 26.5317 149.443C23.1989 149.443 19.3725 150.101 15.0934 151.829C7.93418 154.668 2.9145 160.757 1.30985 168.493C-0.418236 177.01 2.25618 185.856 8.55135 192.11C12.9539 196.43 18.6318 198.281 27.6014 198.281H27.9306L28.2186 198.446C32.1685 200.791 34.3903 208.115 35.3778 212.271L35.5835 213.094L34.8841 213.546C5.63006 233.172 12.0487 275.305 14.7231 287.772C23.2401 327.641 51.7123 364.466 87.2204 381.705Z" fill="#C19F86"/></svg>