<svg width="1200" height="630" viewBox="0 0 1200 630" fill="none" xmlns="http://www.w3.org/2000/svg">
<rect width="1200" height="630" fill="#FBF2E9"/>
<path d="M506.719 335.079V353.916C506.719 355.387 506.183 356.611 505.097 357.573C504.011 358.536 502.705 359.017 501.165 359.017C499.639 359.017 498.319 358.536 497.232 357.573C496.146 356.611 495.61 355.401 495.61 353.916V303.414C495.61 301.943 496.146 300.719 497.232 299.743C498.319 298.767 499.625 298.286 501.165 298.286H519.548C526.642 298.286 532.128 299.977 536.006 303.359C539.869 306.742 541.808 311.196 541.808 316.71C541.808 321.729 539.993 325.798 536.377 328.947C534.906 330.336 533.146 331.381 531.111 332.082V332.962L542.647 348.787C543.114 349.351 543.472 349.887 543.692 350.41C544.42 351.606 544.778 352.775 544.778 353.916C544.778 355.387 544.242 356.611 543.155 357.573C542.069 358.536 540.763 359.017 539.223 359.017C537.271 359.017 535.566 358.027 534.081 356.047L519.121 335.079H506.719ZM519.548 324.795C523.274 324.795 526.065 324.066 527.907 322.622C529.75 321.179 530.671 319.199 530.671 316.696C530.671 314.194 529.75 312.2 527.907 310.743C526.065 309.285 523.288 308.557 519.548 308.557H506.719V324.808H519.548V324.795Z" fill="#63215B"/>
<path d="M613.607 335.959C613.607 339.355 612.989 342.531 611.751 345.501C610.514 348.471 608.795 351.001 606.609 353.105C604.423 355.208 601.755 356.858 598.607 358.082C595.458 359.292 592.048 359.897 588.377 359.897C584.706 359.897 581.296 359.292 578.148 358.082C574.999 356.872 572.332 355.208 570.145 353.105C567.959 351.001 566.241 348.471 565.003 345.501C563.766 342.531 563.147 339.355 563.147 335.959V320.532C563.147 316.023 564.192 311.953 566.296 308.309C568.399 304.679 571.383 301.806 575.233 299.702C579.083 297.598 583.469 296.553 588.363 296.553C593.258 296.553 597.644 297.598 601.494 299.702C605.358 301.806 608.328 304.679 610.431 308.309C612.535 311.939 613.58 316.023 613.58 320.532V335.959H613.607ZM602.498 320.532C602.498 316.408 601.205 313.094 598.634 310.592C596.063 308.089 592.639 306.838 588.377 306.838C584.115 306.838 580.691 308.089 578.12 310.592C575.549 313.094 574.257 316.408 574.257 320.532V335.945C574.257 340.07 575.535 343.37 578.106 345.872C580.664 348.361 584.087 349.612 588.377 349.612C592.667 349.612 596.091 348.361 598.648 345.872C601.205 343.384 602.498 340.07 602.498 335.945V320.532Z" fill="#63215B"/>
<path d="M646.963 317.947V353.916C646.963 355.387 646.413 356.611 645.327 357.573C644.241 358.536 642.935 359.017 641.395 359.017C639.869 359.017 638.549 358.536 637.462 357.573C636.376 356.611 635.84 355.401 635.84 353.916V303.414C635.84 301.723 636.473 300.293 637.724 299.152C638.975 298.011 640.487 297.433 642.234 297.433C644.846 297.433 647.28 299.152 649.507 302.576L672.606 338.503H673.486V302.576C673.486 301.104 674.036 299.881 675.108 298.905C676.195 297.928 677.501 297.447 679.041 297.447C680.567 297.447 681.887 297.928 682.973 298.905C684.059 299.881 684.595 301.104 684.595 302.576V353.036C684.595 354.741 683.963 356.157 682.698 357.298C681.433 358.439 679.921 359.017 678.161 359.017C675.548 359.017 673.115 357.312 670.887 353.916L647.788 317.947H646.963Z" fill="#63215B"/>
<path d="M718.804 317.947V353.916C718.804 355.387 718.268 356.611 717.182 357.573C716.095 358.536 714.789 359.017 713.249 359.017C711.709 359.017 710.403 358.536 709.317 357.573C708.231 356.611 707.695 355.401 707.695 353.916V303.414C707.695 301.723 708.327 300.293 709.578 299.152C710.829 298.011 712.342 297.433 714.088 297.433C716.7 297.433 719.134 299.152 721.361 302.576L744.46 338.503H745.34V302.576C745.34 301.104 745.877 299.881 746.963 298.905C748.049 297.928 749.355 297.447 750.895 297.447C752.435 297.447 753.741 297.928 754.828 298.905C755.914 299.881 756.45 301.104 756.45 302.576V353.036C756.45 354.741 755.817 356.157 754.553 357.298C753.288 358.439 751.775 359.017 750.015 359.017C747.403 359.017 744.969 357.312 742.742 353.916L719.643 317.947H718.804Z" fill="#63215B"/>
<path d="M790.645 317.947V353.916C790.645 355.387 790.095 356.611 789.022 357.573C787.936 358.536 786.63 359.017 785.09 359.017C783.564 359.017 782.244 358.536 781.158 357.573C780.071 356.611 779.535 355.401 779.535 353.916V303.414C779.535 301.723 780.168 300.293 781.419 299.152C782.67 298.011 784.182 297.433 785.929 297.433C788.541 297.433 790.975 299.152 793.202 302.576L816.301 338.503H817.181V302.576C817.181 301.104 817.717 299.881 818.803 298.905C819.89 297.928 821.196 297.447 822.736 297.447C824.262 297.447 825.582 297.928 826.668 298.905C827.754 299.881 828.29 301.104 828.29 302.576V353.036C828.29 354.741 827.658 356.157 826.393 357.298C825.128 358.439 823.616 359.017 821.856 359.017C819.243 359.017 816.81 357.312 814.582 353.916L791.483 317.947H790.645Z" fill="#63215B"/>
<path d="M847.938 307.718C847.883 307.608 847.691 307.333 847.375 306.907C847.058 306.48 846.797 306.095 846.605 305.752C846.412 305.422 846.22 304.954 846.041 304.377C845.862 303.786 845.766 303.194 845.766 302.576C845.766 301.104 846.316 299.881 847.416 298.905C848.516 297.928 849.836 297.447 851.362 297.447C853.287 297.447 854.978 298.451 856.463 300.458L871.464 323.97H872.302L887.303 300.458C888.774 298.451 890.493 297.447 892.445 297.447C893.971 297.447 895.291 297.928 896.377 298.905C897.464 299.881 898 301.104 898 302.576C898 303.194 897.904 303.786 897.725 304.377C897.546 304.968 897.367 305.422 897.189 305.738C897.01 306.054 896.762 306.453 896.432 306.907C896.116 307.36 895.924 307.635 895.869 307.718L877.445 335.492V353.916C877.445 355.387 876.895 356.611 875.822 357.573C874.736 358.536 873.43 359.017 871.89 359.017C870.364 359.017 869.044 358.536 867.957 357.573C866.871 356.611 866.335 355.401 866.335 353.916V335.492L847.938 307.718Z" fill="#63215B"/>
<path d="M372.223 374.87C390.07 383.078 406.129 383.037 422.724 374.746C425.392 373.413 428.43 371.35 431.125 369.535L432.775 368.421L432.995 368.573C433.724 369.068 434.274 369.576 434.879 370.319L435.264 370.8C435.69 371.323 435.69 371.323 436.185 371.721L436.708 372.148C437.56 372.849 438.33 373.674 439.086 374.471C439.554 374.966 440.035 375.461 440.516 375.942C442.029 377.4 443.816 378.692 445.548 379.944C445.988 380.26 446.428 380.576 446.855 380.892C447.102 381.085 447.295 381.236 447.432 381.346C447.556 381.442 447.68 381.552 447.721 381.566C447.79 381.566 448.01 381.456 448.271 381.318C445.865 376.809 443.623 373.33 440.131 368.669L436.983 364.159L437.134 363.925C438.426 362.001 439.677 360.419 440.874 358.879C442.964 356.226 444.943 353.71 446.868 349.791C456.479 330.267 452.574 297.461 433.133 284.426L432.789 284.206L439.512 274.444L439.815 274.596C441.932 275.613 445.26 273.839 446.36 273.069C449.013 271.199 450.141 267.363 449.054 263.954C447.913 260.379 444.71 258.33 440.269 258.33C438.069 258.33 435.649 259.787 434.246 261.974C432.665 264.421 432.514 267.377 433.834 270.278C434.453 271.639 433.806 272.492 433.105 273.399C432.981 273.564 432.844 273.743 432.706 273.922C432.569 274.114 432.39 274.362 432.184 274.651C431.139 276.094 428.939 279.078 428.678 280.109L428.582 280.48L428.21 280.398C428.114 280.37 428.045 280.343 427.152 279.82C424.883 278.487 418.861 274.939 414.2 273.427C399.213 268.56 380.967 271.144 367.699 280.04L367.369 280.26L367.149 279.93C365.747 277.827 362.571 274.169 359.505 270.622C356.287 266.896 352.946 263.046 351.379 260.709L351.282 260.571L351.324 260.406C351.544 259.457 351.722 258.88 351.86 258.426C352.135 257.519 352.259 257.148 352.259 255.14C352.259 252.308 350.32 249.668 347.309 248.43C344.779 247.386 341.067 247.276 338.207 250.135C337.066 251.277 335.732 253.6 335.732 256.405C335.732 260.42 339.362 264.215 343.212 264.215L346.91 263.885L347.034 264.119C347.474 264.957 347.68 265.177 348.01 265.535C348.203 265.741 348.423 265.988 348.739 266.387C349.468 267.308 350.939 269.055 352.657 271.062C356.59 275.696 361.471 281.457 362.461 283.326L362.557 283.519L362.447 283.711C362.406 283.766 362.406 283.766 361.595 284.578C359.945 286.2 356.067 289.981 355.297 290.971C341.685 308.488 340.324 331.202 351.887 348.801C357.703 357.656 366.737 364.035 377.338 366.772L377.503 366.813C383.566 368.367 393.149 369.274 400.189 366.675C400.945 366.4 401.523 366.112 402.142 365.809C402.664 365.548 403.2 365.287 403.874 365.012C423.398 357.174 428.554 338.764 428.554 330.129C428.554 324.561 427.578 320.216 425.474 316.435C424.044 313.864 422.339 310.963 420.263 308.887C420.222 308.845 416.235 304.927 412.66 303.181L412 302.851C404.905 299.276 391.005 297.158 382.012 311.1C379.606 314.84 378.809 320.491 379.936 325.867C380.459 328.356 382.37 331.147 384.034 332.811C387.457 336.234 392.668 337.925 397.302 337.142C401.055 336.509 404.011 334.295 405.634 330.941C408.219 325.565 406.418 321.22 403.86 318.924C401.097 316.449 397.302 315.981 394.414 317.769C392.874 318.717 391.829 320.271 391.554 322.031C391.307 323.626 391.719 325.152 392.737 326.362C393.493 327.256 393.768 327.393 395.487 327.682C397.26 327.985 398.69 327.366 399.323 326.005C399.9 324.781 399.584 323.351 398.525 322.457C398.209 322.182 397.975 322.059 397.769 321.949C397.274 321.674 396.999 321.481 396.724 320.45L396.642 320.147L396.917 319.996C398.443 319.144 400.285 319.639 401.592 321.275C403.131 323.213 403.695 326.513 401.275 329.208C399.983 330.652 398.195 331.436 396.119 331.491C393.411 331.559 390.991 330.404 389.808 329.222C386.88 326.293 386.426 321.179 388.736 317.026C391.197 312.585 395.941 310.688 401.427 311.953C405.606 312.915 408.92 315.5 410.762 319.226C412.839 323.42 412.894 328.562 410.886 332.989C409.195 336.743 404.176 341.816 400.272 342.724C388.873 345.364 378.506 340.62 373.845 330.666C369.445 321.234 370.944 307.223 384.226 297.186C388.612 293.872 395.047 291.975 401.894 291.975C421.157 291.975 438.069 308.57 438.069 327.476C438.069 337.513 435.168 347.261 429.888 354.906L429.407 355.525C428.472 356.707 428.018 357.298 425.296 359.993C420.153 366.18 410.446 371.281 399.983 373.261C390.95 374.98 377.31 375.186 363.671 366.483C362.859 366.002 362.282 365.562 361.718 365.122C361.306 364.805 360.88 364.475 360.343 364.132C360.11 363.98 359.876 363.815 359.642 363.65C358.817 363.045 358.02 362.482 356.878 362.344C357.552 365.795 369.184 373.399 372.223 374.87Z" fill="#C0A087"/>
<path d="M330.576 375.31C340.283 380.012 354.101 380.672 365.211 381.195C366.214 381.236 367.191 381.291 368.139 381.332C369.239 381.305 370.105 380.81 370.215 380.37C370.312 379.985 369.734 379.627 369.459 379.49C366.847 378.541 344.958 369.796 341.19 339.644C341.039 338.475 340.929 337.238 340.805 335.973C340.09 328.589 339.293 320.23 332.528 316.669L332.308 316.559V316.311C332.363 313.63 333.573 313.438 335.237 313.163C336.282 312.998 337.588 312.778 339.197 311.925C342.222 310.317 343.693 306.59 342.758 302.837C342.002 299.798 339.375 296.54 334.274 296.54C330.562 296.54 326.479 300.623 326.479 304.336C326.479 306.81 326.795 308.653 328.335 310.289C328.555 310.509 328.733 310.688 328.898 310.839C329.943 311.801 329.916 312.186 328.637 314.606L328.5 314.854L328.225 314.813C324.471 314.304 320.965 314.826 317.761 316.38L317.376 316.559L317.17 316.353C316.111 315.294 315.328 314.304 314.957 312.943L314.943 312.778L315.039 312.626C315.41 312.076 315.768 311.65 316.125 311.224C317.239 309.918 318.119 308.873 318.119 305.284C318.119 303.359 316.881 300.582 314.517 298.973C313.54 298.313 312.138 297.695 310.295 297.695C309.182 297.695 307.903 297.915 306.473 298.492C304.081 299.441 302.403 301.476 301.867 304.061C301.29 306.907 302.183 309.863 304.287 311.953C305.758 313.396 307.656 314.015 310.653 314.015H310.763L310.859 314.07C312.179 314.854 312.922 317.301 313.252 318.69L313.32 318.965L313.087 319.116C303.311 325.675 305.456 339.754 306.349 343.92C309.196 357.243 318.71 369.549 330.576 375.31Z" fill="#C0A087"/>
</svg>
