<?xml version="1.0" standalone="no"?>
<!DOCTYPE svg PUBLIC "-//W3C//DTD SVG 20010904//EN"
 "http://www.w3.org/TR/2001/REC-SVG-20010904/DTD/svg10.dtd">
<svg version="1.0" xmlns="http://www.w3.org/2000/svg"
 width="902.000000pt" height="902.000000pt" viewBox="0 0 902.000000 902.000000"
 preserveAspectRatio="xMidYMid meet">
<metadata>
Created by potrace 1.14, written by Peter Selinger 2001-2017
</metadata>
<g transform="translate(0.000000,902.000000) scale(0.100000,-0.100000)"
fill="#000000" stroke="none">
<path d="M2415 8503 c-33 -8 -67 -21 -75 -27 -8 -7 -28 -18 -45 -26 -118 -58
-230 -250 -239 -410 -5 -95 8 -157 50 -240 36 -70 143 -190 170 -190 8 0 14
-4 14 -9 0 -10 90 -48 135 -58 48 -9 266 0 287 13 4 3 14 -9 23 -26 14 -27 35
-56 70 -94 6 -6 28 -33 50 -61 22 -27 42 -52 45 -55 3 -3 39 -45 80 -95 41
-49 81 -94 87 -98 7 -4 13 -12 13 -17 0 -4 17 -26 38 -47 20 -21 49 -55 64
-75 15 -20 33 -42 40 -50 14 -14 103 -119 128 -151 8 -11 20 -24 26 -31 34
-37 237 -300 267 -347 18 -27 18 -28 -2 -48 -12 -12 -21 -25 -21 -30 0 -5 -4
-11 -10 -13 -17 -5 -330 -320 -382 -383 -65 -80 -60 -73 -101 -135 -20 -30
-42 -61 -48 -68 -19 -23 -144 -236 -174 -297 -17 -33 -34 -63 -38 -66 -5 -3
-9 -10 -10 -15 0 -8 -29 -76 -63 -149 -41 -91 -136 -370 -150 -445 -3 -14 -10
-43 -16 -65 -5 -22 -12 -51 -14 -65 -3 -14 -7 -32 -9 -40 -4 -13 -10 -53 -21
-135 -1 -11 -3 -20 -4 -20 -3 0 -13 -106 -14 -152 -1 -24 -3 -43 -7 -43 -6 0
-3 -396 5 -465 3 -27 8 -75 11 -105 3 -30 7 -62 10 -70 2 -8 7 -35 10 -60 4
-24 8 -48 11 -51 2 -4 6 -22 8 -42 7 -50 63 -261 86 -322 5 -11 18 -47 30 -80
29 -79 31 -83 84 -198 25 -54 44 -99 43 -100 -1 -1 8 -16 21 -34 12 -17 22
-38 22 -47 0 -9 3 -16 8 -16 4 0 16 -17 27 -37 11 -21 32 -57 47 -80 15 -23
28 -46 28 -52 0 -6 4 -11 8 -11 4 0 15 -12 24 -27 20 -34 117 -166 127 -173 3
-3 25 -27 46 -54 72 -90 275 -285 349 -335 12 -8 23 -17 26 -20 15 -17 128
-95 220 -152 94 -58 252 -140 350 -182 87 -37 300 -111 347 -120 10 -2 25 -6
33 -9 14 -5 104 -26 140 -32 8 -2 31 -6 50 -9 78 -15 137 -24 200 -32 161 -19
396 -24 547 -11 88 7 115 10 173 22 14 3 39 7 56 9 41 6 189 50 236 69 21 9
40 15 42 14 2 -2 12 4 22 13 11 9 60 33 109 53 258 108 521 265 685 410 108
96 283 283 323 347 11 16 23 29 28 29 5 0 9 7 9 15 0 8 4 15 9 15 5 0 12 8 16
19 3 10 17 31 30 47 14 16 25 34 25 41 0 6 3 13 8 15 19 8 193 354 208 413 1
6 9 27 18 47 9 21 13 38 10 38 -4 0 -2 6 3 13 6 6 14 26 18 42 5 17 9 32 10
35 11 36 28 99 30 112 2 10 6 22 9 26 2 4 7 26 10 48 4 22 9 51 11 64 11 54
15 79 22 136 8 66 7 351 -1 429 -7 76 -16 138 -22 157 -3 10 -7 28 -10 40 -2
13 -6 32 -8 44 -19 95 -99 279 -181 419 -20 33 -39 67 -42 75 -4 8 -11 20 -15
25 -5 6 -31 43 -59 84 -68 98 -74 105 -149 180 -105 106 -200 184 -325 268
-93 62 -279 154 -342 169 -15 4 -32 9 -38 13 -5 3 -14 6 -20 7 -5 1 -37 9 -70
17 -59 16 -73 19 -145 31 -99 17 -268 22 -360 10 -25 -3 -54 -7 -65 -8 -161
-19 -390 -114 -541 -225 -141 -104 -331 -313 -391 -430 -10 -20 -20 -38 -23
-41 -12 -12 -71 -155 -76 -186 -1 -7 -9 -44 -18 -83 -9 -39 -16 -74 -15 -78 1
-5 0 -10 -1 -13 -8 -19 -13 -253 -5 -310 20 -158 31 -203 73 -290 62 -128 133
-223 235 -315 99 -90 266 -178 387 -205 19 -5 46 -11 60 -15 43 -12 253 -14
305 -4 28 5 58 11 67 12 10 2 21 6 24 10 4 4 14 7 21 7 21 0 121 47 167 80 46
32 156 138 156 150 0 5 6 15 14 23 30 29 89 166 113 258 3 13 7 69 9 125 5
163 -47 297 -160 408 -248 243 -648 176 -742 -126 -16 -52 -15 -152 4 -201 32
-86 92 -151 156 -168 55 -15 154 -18 191 -6 60 19 114 89 119 151 6 72 -26
131 -95 177 -46 30 -68 59 -75 95 -4 21 1 27 33 41 43 17 126 13 164 -9 65
-37 123 -110 154 -193 40 -104 11 -256 -61 -334 -13 -14 -24 -29 -24 -33 0
-16 -106 -82 -166 -103 -74 -26 -185 -32 -262 -14 -26 6 -54 12 -62 14 -47 10
-142 67 -191 115 -170 167 -200 447 -75 700 40 81 53 97 137 180 65 64 179
133 210 126 3 0 12 4 20 11 8 6 32 14 54 17 23 4 52 8 65 11 68 13 207 2 312
-25 201 -52 367 -170 481 -343 28 -44 52 -82 53 -86 0 -3 10 -28 22 -54 12
-27 24 -59 26 -72 3 -14 7 -29 11 -35 6 -9 10 -33 23 -120 14 -102 5 -296 -18
-370 -6 -19 -13 -42 -15 -50 -6 -25 -47 -134 -55 -145 -4 -5 -19 -32 -34 -58
-14 -26 -31 -53 -36 -60 -5 -7 -31 -38 -57 -71 -161 -204 -387 -360 -550 -381
-19 -2 -43 -7 -52 -10 -53 -17 -367 -27 -431 -14 -19 4 -66 13 -105 19 -164
27 -374 118 -520 223 -97 70 -241 218 -307 318 -31 46 -56 88 -56 93 0 5 -4
12 -9 15 -27 19 -135 298 -149 385 -3 21 -8 48 -10 60 -28 131 -24 413 8 556
5 25 11 52 13 60 1 8 9 35 16 60 7 25 13 47 14 50 4 18 30 91 43 120 45 105
76 167 90 183 8 9 12 17 9 17 -6 0 110 180 122 190 3 3 19 23 36 45 42 57 225
244 258 263 15 9 27 22 27 29 0 7 6 13 14 13 8 0 16 4 18 8 3 8 106 87 140
107 70 42 136 76 204 105 43 18 93 39 111 46 17 8 36 14 42 14 6 0 30 7 53 14
24 8 54 17 68 20 14 2 45 9 70 15 25 5 59 12 75 15 17 2 50 8 75 12 25 4 63 8
85 10 59 4 345 4 380 0 270 -31 484 -90 705 -194 73 -34 230 -120 240 -131 3
-4 17 -12 33 -20 15 -8 27 -18 27 -23 0 -4 5 -8 12 -8 10 0 83 -51 141 -100
134 -110 271 -249 380 -385 122 -154 254 -391 323 -583 31 -84 80 -261 90
-322 10 -63 12 -79 20 -140 9 -86 10 -341 1 -460 -8 -94 -10 -116 -22 -195 -4
-22 -7 -49 -9 -60 -2 -18 -18 -103 -21 -115 -2 -7 -16 -72 -19 -90 -11 -59
-83 -290 -118 -380 -64 -161 -173 -384 -205 -418 -7 -7 -13 -18 -13 -23 0 -5
-5 -15 -10 -22 -6 -7 -30 -40 -53 -73 -57 -83 -96 -129 -202 -239 -49 -51
-117 -122 -150 -157 -82 -86 -167 -159 -267 -229 -45 -32 -87 -62 -93 -67 -5
-4 -17 -11 -25 -15 -8 -4 -31 -17 -50 -29 -85 -52 -309 -166 -340 -173 -8 -2
-34 -13 -57 -24 -23 -12 -47 -21 -53 -21 -7 0 -24 -6 -38 -14 -24 -13 -221
-78 -277 -91 -75 -18 -195 -46 -220 -50 -16 -3 -37 -8 -45 -10 -22 -7 -86 -16
-205 -29 -22 -3 -65 -8 -95 -12 -94 -12 -430 -11 -550 2 -99 10 -136 15 -230
29 -40 6 -102 19 -170 37 -41 10 -88 21 -103 24 -16 3 -74 21 -130 40 -56 20
-106 36 -112 38 -5 1 -27 10 -49 19 -21 9 -40 17 -43 17 -35 0 -482 241 -533
287 -27 25 -151 113 -158 113 -4 0 -18 10 -32 23 -39 36 -150 81 -150 62 0
-48 204 -267 330 -355 19 -13 37 -27 40 -30 15 -16 161 -120 169 -120 5 0 11
-4 13 -8 4 -11 94 -72 106 -72 6 0 12 -3 14 -7 3 -9 78 -59 123 -83 111 -60
173 -91 265 -129 58 -24 119 -50 135 -57 17 -7 53 -20 80 -29 28 -9 59 -20 70
-25 17 -8 131 -44 175 -55 8 -3 31 -9 50 -14 28 -8 87 -23 175 -45 11 -3 71
-15 95 -20 89 -17 125 -22 205 -32 28 -3 61 -8 75 -10 47 -8 204 -17 320 -17
237 -1 409 19 700 78 102 21 353 101 485 155 55 23 115 46 133 52 17 6 32 15
32 20 0 4 7 8 15 8 9 0 39 12 68 27 29 15 54 27 57 28 5 1 27 13 88 47 17 10
49 28 70 39 20 12 56 34 80 50 24 16 47 29 52 29 4 0 10 3 12 8 2 4 50 38 108
76 58 38 123 81 145 97 22 16 48 28 58 29 10 0 52 -35 93 -77 41 -43 78 -81
82 -85 261 -255 391 -372 508 -459 76 -57 141 -106 144 -109 16 -19 68 -46 83
-42 15 3 12 13 -25 80 -86 159 -302 502 -328 522 -3 3 -26 34 -51 70 -24 36
-46 67 -49 70 -16 14 -110 151 -110 159 0 5 -4 11 -8 13 -5 2 -27 30 -49 63
-40 59 -40 60 -23 85 46 66 135 186 144 196 6 6 18 22 26 34 8 12 30 39 47 59
18 20 33 42 33 49 0 6 4 12 9 12 4 0 21 19 37 42 16 23 37 50 47 60 9 10 17
21 17 26 0 4 11 20 25 35 14 15 23 27 20 27 -3 0 10 21 28 48 63 89 171 296
219 422 14 36 29 74 33 85 5 11 9 22 10 25 2 11 27 86 32 100 3 8 8 24 10 35
2 11 7 31 13 45 17 46 77 321 78 360 0 8 3 26 6 40 3 14 9 50 12 80 3 30 7 68
10 83 13 83 27 559 16 580 -2 4 -5 42 -7 85 -4 82 -14 181 -30 287 -3 17 -7
48 -11 70 -3 22 -10 57 -15 78 -6 20 -7 42 -4 47 3 6 2 10 -2 10 -5 0 -9 8
-10 18 -1 19 -11 68 -19 94 -3 10 -7 30 -10 45 -2 16 -8 39 -13 53 -5 14 -19
59 -31 100 -12 41 -24 82 -27 90 -3 8 -7 22 -9 31 -9 42 -114 289 -176 410
-70 138 -231 393 -278 439 -8 8 -33 37 -55 65 -42 52 -206 216 -250 250 -15
11 -43 35 -63 52 -20 18 -43 33 -49 33 -7 0 -13 5 -13 10 0 6 -11 15 -25 20
-33 13 -42 36 -21 59 9 10 16 22 16 28 0 6 4 13 8 15 4 2 37 46 72 98 36 52
70 101 77 108 6 6 15 21 18 32 3 11 10 20 14 20 4 0 18 19 31 43 13 23 29 47
34 54 24 28 33 40 51 71 11 17 23 32 27 32 4 0 8 6 8 14 0 28 24 36 72 22 69
-21 151 -7 265 46 73 33 73 34 145 97 74 67 141 221 133 306 -2 19 1 38 6 41
5 3 6 10 3 16 -4 5 -8 29 -10 51 -9 94 -62 202 -134 274 -29 29 -61 55 -71 58
-10 4 -19 11 -19 16 0 5 -3 8 -7 7 -5 -1 -30 8 -56 20 -27 12 -63 24 -80 27
-16 3 -34 8 -39 11 -20 13 -185 10 -230 -3 -144 -42 -261 -155 -320 -311 -17
-43 -22 -79 -22 -147 0 -103 4 -129 40 -223 37 -98 31 -116 -88 -279 -116
-159 -188 -267 -188 -282 0 -6 -4 -11 -10 -11 -5 0 -9 -3 -8 -7 3 -13 -13 -53
-21 -53 -4 0 -48 24 -98 54 -50 30 -120 69 -155 87 -35 19 -65 36 -68 39 -3 3
-57 31 -120 64 -63 32 -119 61 -125 64 -5 4 -14 7 -20 8 -5 1 -45 18 -88 38
-42 20 -83 36 -90 36 -7 0 -17 4 -22 8 -32 28 -397 119 -545 137 -19 2 -35 4
-35 5 0 1 -13 3 -30 5 -16 1 -70 6 -120 11 -165 16 -587 8 -690 -12 -11 -2
-45 -7 -75 -10 -80 -9 -83 -10 -110 -17 -14 -3 -38 -9 -55 -11 -39 -6 -81 -15
-130 -27 -37 -9 -69 -16 -105 -24 -8 -2 -15 -4 -15 -5 0 -1 -10 -3 -22 -6 -25
-4 -259 -81 -288 -94 -11 -5 -60 -25 -108 -45 -132 -53 -344 -163 -461 -239
-33 -21 -65 -40 -71 -42 -6 -3 -25 14 -41 38 -16 24 -33 48 -39 54 -5 7 -21
26 -35 44 -14 18 -41 51 -60 74 -19 23 -55 67 -80 96 -25 30 -59 70 -76 90
-17 19 -39 46 -50 59 -10 13 -26 31 -35 40 -18 20 -200 230 -214 249 -5 7 -17
21 -26 30 -9 9 -45 51 -79 92 -34 41 -66 77 -71 78 -5 2 -9 10 -9 17 0 7 -4
15 -8 17 -6 2 -51 59 -136 171 -12 16 -11 30 10 105 43 152 48 299 12 367 -6
11 -10 20 -8 20 2 0 -7 19 -19 43 -21 41 -109 142 -125 142 -4 0 -16 9 -28 19
-19 18 -127 67 -173 78 -53 13 -194 10 -250 -4z"/>
<path d="M1857 5581 c-152 -50 -293 -193 -338 -343 -17 -57 -20 -85 -15 -166
8 -151 37 -224 123 -310 24 -24 47 -52 53 -61 13 -26 2 -79 -31 -142 l-30 -55
-52 7 c-58 7 -281 4 -295 -5 -5 -3 -27 -8 -49 -10 -22 -3 -53 -11 -69 -17 -16
-6 -40 -13 -54 -16 -13 -2 -30 -9 -37 -15 -7 -6 -13 -8 -13 -6 0 3 -21 -5 -47
-18 l-48 -23 -48 52 c-47 52 -97 137 -97 166 0 9 27 50 61 91 102 128 127 196
124 350 -2 105 -22 173 -75 251 -100 149 -237 223 -403 218 -287 -9 -496 -205
-500 -469 -3 -180 107 -381 245 -447 87 -41 124 -50 249 -57 67 -4 95 -28 138
-120 34 -70 68 -175 59 -180 -65 -37 -258 -225 -258 -252 0 -3 -10 -20 -22
-37 -22 -31 -81 -139 -79 -145 1 -1 -6 -18 -14 -38 -8 -20 -15 -42 -15 -48 0
-7 -5 -17 -12 -24 -7 -7 -9 -12 -6 -12 4 0 1 -21 -7 -48 -8 -26 -17 -65 -21
-87 -3 -22 -7 -42 -9 -45 -17 -28 -24 -360 -11 -485 4 -38 9 -84 11 -100 5
-55 41 -229 61 -295 7 -25 15 -56 18 -70 9 -45 76 -223 122 -325 15 -33 28
-62 29 -65 2 -7 61 -123 85 -165 11 -19 29 -52 41 -73 12 -20 27 -44 35 -53 8
-8 14 -18 14 -22 0 -12 163 -237 172 -237 4 0 8 -5 8 -11 0 -6 6 -16 13 -23 6
-7 35 -39 62 -71 64 -76 217 -229 280 -280 27 -22 57 -48 67 -58 10 -9 20 -17
23 -17 3 0 11 -5 18 -10 7 -6 23 -20 37 -31 39 -33 189 -132 255 -169 81 -45
236 -121 255 -125 8 -2 33 -11 55 -21 22 -10 45 -19 50 -20 6 -2 68 -21 139
-43 70 -22 140 -42 155 -45 14 -3 60 -12 101 -21 94 -21 108 -24 145 -30 17
-3 44 -7 60 -10 17 -3 46 -8 65 -11 19 -2 46 -7 59 -9 22 -4 60 -9 146 -20 61
-8 131 -15 190 -20 33 -2 76 -7 95 -9 19 -3 76 -8 125 -11 50 -3 128 -8 175
-11 47 -3 126 -7 175 -9 50 -2 144 -7 210 -11 177 -10 222 -8 265 11 65 30 57
66 -23 100 -20 8 -39 15 -42 15 -12 -1 -260 132 -316 170 -33 22 -65 40 -70
40 -5 0 -9 4 -9 8 0 4 -14 16 -31 26 -128 75 -397 326 -537 499 -48 60 -93
115 -99 122 -7 8 -13 17 -13 22 0 4 -13 24 -30 43 -16 19 -35 47 -41 62 -6 16
-15 28 -20 28 -5 0 -9 4 -9 9 0 5 -18 39 -40 75 -22 36 -40 70 -40 76 0 5 -5
10 -12 10 -6 0 -9 3 -5 6 3 3 -4 23 -17 43 -22 35 -127 266 -130 286 -1 6 -4
15 -7 20 -4 6 -12 28 -18 50 -7 22 -16 49 -21 60 -9 20 -41 119 -47 143 -7 30
-10 38 -16 57 -3 11 -9 31 -11 45 -3 14 -17 75 -30 135 -13 61 -26 126 -29
145 -3 19 -8 46 -11 60 -3 14 -8 48 -11 75 -3 28 -8 68 -10 90 -7 52 -15 138
-20 200 -2 28 -7 69 -10 93 -3 23 -7 63 -10 90 -6 47 -10 78 -20 150 -11 75
-37 196 -51 233 -7 22 -11 39 -9 39 2 0 -10 35 -26 77 -36 93 -98 213 -110
213 -5 0 -9 6 -9 14 0 23 -133 151 -200 192 l-62 38 5 45 c10 105 48 139 172
156 68 10 177 45 238 78 135 71 222 226 224 398 2 155 -51 285 -160 390 -40
38 -143 96 -187 104 -11 2 -24 7 -30 10 -5 3 -51 8 -102 10 -74 4 -105 1 -151
-14z"/>
</g>
</svg>
